<?xml version="1.0" encoding="UTF-8" standalone="no"?>
<svg viewBox="0 0 10.504865 8.7351112" version="1.1"
   xmlns="http://www.w3.org/2000/svg"
   xmlns:svg="http://www.w3.org/2000/svg">
   <g transform="translate(-98.209472,-138.71391)">
      <path d="m 100.72419,142.43464 c 0.0992,-0.15354 0.10312,-0.15876 0.14883,-0.24805 -0.16537,-0.0331 -0.34727,-0.0496 -0.54571,-0.0496 -0.29765,0 -0.529166,0.0827 -0.694531,0.24805 -0.165365,0.16537 -0.248047,0.33073 -0.248047,0.49609 0,0.26459 0.115755,0.39688 0.347266,0.39688 0.330732,0.0331 0.661462,-0.24805 0.992192,-0.84336 z m 0.59531,-0.34727 c 0.52917,0.16537 1.05833,0.39688 1.5875,0.69453 0.0331,0.0661 0,0.0992 -0.0992,0.0992 -0.0992,0 -0.2315,-0.0165 -0.39687,-0.0496 -0.52917,-0.19843 -0.92604,-0.3638 -1.19063,-0.49609 -0.13229,0.33073 -0.31419,0.66146 -0.5457,0.99219 -0.42995,0.69453 -0.678002,1.12447 -0.744145,1.28984 -0.198437,0.39687 -0.297656,0.76068 -0.297656,1.09141 0,0.29765 0.115755,0.56224 0.347269,0.79375 0.231512,0.23151 0.479552,0.34726 0.744142,0.34726 0.13229,0 0.26459,-0.0331 0.39688,-0.0992 0.16607,-0.0868 0.16529,-0.0867 0.24804,-0.14883 0.0331,-0.0331 0.0827,-0.0661 0.14883,-0.0992 0.0992,0 0.19844,0.0496 0.29766,0.14882 0.0992,0.13229 0.13228,0.26459 0.0992,0.39688 -0.0331,0.23151 -0.19843,0.3638 -0.4961,0.39687 -0.46302,0.0331 -0.94258,-0.14883 -1.438672,-0.5457 -0.562243,-0.42995 -0.843363,-0.95911 -0.843363,-1.5875 0,-0.42995 0.214974,-0.92604 0.644922,-1.48828 h -0.09922 c -0.429948,0 -0.677995,-0.23151 -0.744141,-0.69453 0,-0.39687 0.115755,-0.71107 0.347266,-0.94258 0.264583,-0.23151 0.595312,-0.33073 0.992188,-0.29766 0.29766,0.0331 0.52917,0.0661 0.69454,0.0992 0.19843,-0.39687 0.29765,-0.76067 0.29765,-1.0914 0,-0.33073 -0.0662,-0.59532 -0.19843,-0.79375 -0.1323,-0.19844 -0.33073,-0.29766 -0.59532,-0.29766 -0.23151,0 -0.42995,0.0992 -0.595316,0.29766 -0.06615,0.0992 -0.165365,0.13229 -0.297656,0.0992 -0.198437,-0.0331 -0.363802,-0.0992 -0.496094,-0.19844 -0.132291,-0.13229 -0.214974,-0.28112 -0.248047,-0.44649 0,-0.23151 0.08268,-0.42994 0.248047,-0.59531 0.165365,-0.16537 0.396875,-0.24805 0.694531,-0.24805 0.463025,0.0331 0.876435,0.28112 1.240245,0.74415 0.39687,0.49609 0.57877,1.02526 0.5457,1.5875 0,0.29765 -0.0827,0.64492 -0.24805,1.04179 z" />
      <path d="m 103.33205,142.82201 c -0.79323,-0.33722 -1.22761,-0.7664 -1.30315,-1.28757 -0.0378,-0.39853 0.0945,-0.7664 0.39662,-1.10363 0.41549,-0.36787 0.98206,-0.53647 1.69974,-0.50582 0.9443,0.0919 1.68086,0.67444 2.20967,1.74741 0.30217,0.67444 0.66101,1.01166 1.07651,1.01166 0.30217,0.0307 0.52881,-0.046 0.6799,-0.22992 0.15108,-0.15329 0.22663,-0.32189 0.22663,-0.50583 0,-0.30658 -0.15109,-0.53649 -0.45326,-0.68978 -0.18887,-0.12262 -0.4155,-0.18393 -0.6799,-0.18393 -0.0378,0.0307 -0.0755,0.046 -0.11329,0.046 -0.0378,0 -0.0755,-0.0153 -0.11329,-0.046 -0.15111,-0.18394 -0.22665,-0.30656 -0.22665,-0.36788 0,-0.12262 0.0566,-0.22992 0.16999,-0.32188 0.15108,-0.12262 0.35882,-0.16861 0.62323,-0.13796 0.30217,0.0307 0.56658,0.21459 0.79321,0.55181 0.30218,0.45984 0.41549,1.02699 0.33995,1.70144 -0.11329,0.95034 -0.60435,1.73207 -1.4731,2.3452 -0.90655,0.61312 -1.88861,0.91968 -2.94623,0.91968 -0.83099,0.0307 -1.49202,-0.13795 -1.98304,-0.50582 -0.37772,-0.27591 -0.58547,-0.64379 -0.62324,-1.10364 0,-0.67443 0.54769,-1.05763 1.64309,-1.1496 z" />
   </g>
</svg>
