<?xml version="1.0" encoding="UTF-8" standalone="no"?>
<svg
   width="558.47742"
   height="578.51849"
   version="1.0"
   id="svg3"
   sodipodi:docname="normal-brain.svg"
   inkscape:version="1.3.2 (091e20e, 2023-11-25, custom)"
   xmlns:inkscape="http://www.inkscape.org/namespaces/inkscape"
   xmlns:sodipodi="http://sodipodi.sourceforge.net/DTD/sodipodi-0.dtd"
   xmlns="http://www.w3.org/2000/svg"
   xmlns:svg="http://www.w3.org/2000/svg">
  <defs
     id="defs3" />
  <sodipodi:namedview
     id="namedview3"
     pagecolor="#ffffff"
     bordercolor="#000000"
     borderopacity="0.25"
     inkscape:showpageshadow="2"
     inkscape:pageopacity="0.0"
     inkscape:pagecheckerboard="0"
     inkscape:deskcolor="#d1d1d1"
     inkscape:zoom="1.4142136"
     inkscape:cx="124.80435"
     inkscape:cy="186.32264"
     inkscape:window-width="1920"
     inkscape:window-height="991"
     inkscape:window-x="-9"
     inkscape:window-y="-9"
     inkscape:window-maximized="1"
     inkscape:current-layer="g3" />
  <g
     transform="translate(-6.7448311,44.955318)"
     id="g3">
    <rect
       style="fill:#ffffff;stroke:none;stroke-width:100"
       id="rect1"
       width="518.99725"
       height="578.51849"
       x="6.7448311"
       y="-44.955318" />
    <path
       fill="#ffd199"
       fill-rule="evenodd"
       stroke="#6a3900"
       stroke-width="2.99999"
       d="m 123.50665,448.16323 c -1.01482,-22.23937 17.24325,-43.59393 13.35217,-65.91721 0.3453,-19.22688 -6.29152,-36.9851 -16.92442,-52.80536 C 108.59601,307.57692 85.722808,294.32228 77.35943,270.58033 56.893241,224.53412 55.051211,168.05707 79.022172,123.00298 116.22275,70.447958 187.31757,50.818088 248.54611,64.423211 c 39.93737,8.615448 83.97564,22.94376 106.90663,59.470849 22.99502,34.55425 21.25198,77.39478 25.02917,116.90894 6.59619,18.82515 20.00269,34.14081 33.23291,48.48715 13.31969,23.32415 -37.44655,17.80423 -18.49807,43.03953 -1.08483,11.27988 -19.75372,5.86007 -5.8741,18.29579 -2.34451,9.36645 -14.37403,21.61926 -4.02743,34.09581 6.44049,19.54617 -9.82778,33.51481 -28.47201,32.47567 -22.75518,1.08315 -47.96489,2.47656 -64.78029,20.13143 -8.3753,15.56631 0.79261,13.47139 -2.06116,26.93959 -10.40865,13.88943 2.71121,34.45939 -4.7281,46.23216 -47.21436,-18.30762 -114.55265,-44.02928 -161.76701,-62.3369 z"
       id="path1" />
    <path
       fill="#919899"
       fill-rule="evenodd"
       stroke="#454a4b"
       stroke-width="2.99999"
       d="m 190.76291,304.64787 c -17.32674,17.40858 -32.04356,-3.34034 -51.21907,0.0573 C 113.47716,299.88661 120.29916,263.27606 92.366888,265.66643 72.548556,244.6487 75.951727,213.20441 77.817364,186.64475 81.190027,147.70367 106.15852,113.12868 137.88001,91.698353 170.37423,74.199216 209.21229,74.101699 245.03866,77.329304 c 24.93658,4.877339 47.70961,17.677893 69.65842,30.020206 16.12848,12.90567 32.25626,28.36346 40.02462,47.80198 6.65105,21.33822 4.791,52.90311 -19.07359,62.44664 -13.09481,3.23026 -26.7224,4.09633 -39.86431,7.04134 5.89399,18.44263 -6.16045,35.75097 -24.09358,42.71387 -18.24684,8.50082 -40.77172,-16.15436 -47.2406,12.48411 -13.60013,13.61709 0.56657,47.23115 -26.62338,43.2076 -11.20102,0.15833 -5.80213,-11.69484 -7.06333,-18.39718 z"
       id="path2"
       style="fill:#e0b8d3;fill-opacity:1;stroke:#412c14;stroke-opacity:1" />
    <path
       style="fill:none;fill-opacity:1;stroke:#2b2b2b;stroke-width:2.31307;stroke-opacity:1"
       d="M 210.74267,100.55315 262.6849,16.474901 h 241.4568"
       id="path3"
       sodipodi:nodetypes="ccc" />
    <path
       style="font-size:40.0172px;font-family:'Times New Roman';-inkscape-font-specification:'Times New Roman, ';text-align:center;text-anchor:middle;stroke-width:2.31307"
       d="m 285.75717,-3.1879963 h 12.30998 V -10.76938 q 0,-2.032123 -0.25402,-2.676932 -0.19539,-0.488491 -0.82066,-0.840205 -0.84021,-0.468951 -1.77811,-0.468951 h -0.9379 v -0.722967 h 11.33299 v 0.722967 h -0.9379 q -0.9379,0 -1.77811,0.449412 -0.62527,0.312634 -0.85974,0.957442 -0.21494,0.625269 -0.21494,2.579234 V 6.3278126 q 0,2.0125838 0.25402,2.6573922 0.19539,0.4884912 0.80112,0.8402049 0.85975,0.4689513 1.79765,0.4689513 h 0.9379 v 0.722967 h -11.33299 v -0.722967 h 0.9379 q 1.62179,0 2.3643,-0.9574425 0.48849,-0.6252688 0.48849,-3.0091059 v -8.0698749 h -12.30998 v 8.0698749 q 0,2.0125838 0.25401,2.6573922 0.1954,0.4884912 0.82067,0.8402049 0.8402,0.4689513 1.77811,0.4689513 h 0.95744 v 0.722967 h -11.35254 v -0.722967 h 0.93791 q 1.64133,0 2.38383,-0.9574425 0.46896,-0.6252688 0.46896,-3.0091059 V -10.76938 q 0,-2.032123 -0.25402,-2.676932 -0.1954,-0.488491 -0.80112,-0.840205 -0.85975,-0.468951 -1.79765,-0.468951 h -0.93791 v -0.722967 h 11.35254 v 0.722967 h -0.95744 q -0.93791,0 -1.77811,0.449412 -0.60573,0.312634 -0.84021,0.957442 -0.23447,0.625269 -0.23447,2.579234 z m 37.61382,-3.6929936 v 10.844505 q 0,3.1068041 0.13678,3.8102315 0.15632,0.6838877 0.46895,0.9574428 0.33217,0.273555 0.76205,0.273555 0.60573,0 1.36777,-0.332174 l 0.27356,0.6838877 -5.35387,2.2079799 h -0.87928 V 7.7737466 q -2.30568,2.5010754 -3.51714,3.1458834 -1.21146,0.644808 -2.55969,0.644808 -1.50455,0 -2.61831,-0.859744 -1.09422,-0.8792843 -1.5241,-2.2470597 -0.42987,-1.3677754 -0.42987,-3.8688504 v -7.9917164 q 0,-1.2700771 -0.27355,-1.7585683 -0.27356,-0.4884913 -0.82067,-0.7425067 -0.52757,-0.2735551 -1.93442,-0.2540154 v -0.722967 h 6.27222 V 5.0968147 q 0,2.501075 0.85975,3.282661 0.87928,0.7815859 2.11028,0.7815859 0.8402,0 1.89534,-0.5275705 1.07469,-0.5275705 2.54016,-2.0125838 V -3.5201703 q 0,-1.5240926 -0.56665,-2.0516632 -0.54711,-0.5471101 -2.30568,-0.5861894 v -0.722967 z m 9.63305,3.282661 q 1.95397,-1.9539649 2.30568,-2.2470596 0.87929,-0.7425067 1.89535,-1.1528393 1.01606,-0.4103326 2.01258,-0.4103326 1.68041,0 2.89187,0.9769824 1.21146,0.9769824 1.62179,2.8332491 2.01258,-2.3447579 3.3999,-3.0677249 1.38731,-0.7425066 2.85279,-0.7425066 1.42639,0 2.52061,0.7425066 1.11376,0.722967 1.75857,2.3838372 0.42987,1.1332996 0.42987,3.55621601 V 6.972621 q 0,1.6804098 0.25402,2.3056785 0.1954,0.4298723 0.72297,0.7425065 0.52757,0.293095 1.71949,0.293095 v 0.703427 h -8.83193 v -0.703427 h 0.37126 q 1.15284,0 1.79765,-0.449412 0.44941,-0.3126344 0.6448,-0.9965221 0.0782,-0.332174 0.0782,-1.8953459 v -7.69862159 q 0,-2.18844061 -0.52757,-3.08726451 -0.76204,-1.2505375 -2.44245,-1.2505375 -1.03561,0 -2.09075,0.5275705 -1.0356,0.5080309 -2.52061,1.9148856 l -0.0391,0.2149361 0.0391,0.8402049 V 6.972621 q 0,1.836727 0.1954,2.2861389 0.21493,0.4494119 0.78158,0.7620461 0.56665,0.293095 1.93443,0.293095 v 0.703427 h -9.04686 v -0.703427 q 1.48501,0 2.03212,-0.3517138 0.56665,-0.3517136 0.78159,-1.055141 0.0977,-0.332174 0.0977,-1.9344252 v -7.69862159 q 0,-2.18844061 -0.64481,-3.14588341 -0.85975,-1.2505375 -2.40338,-1.2505375 -1.05514,0 -2.09074,0.5666498 -1.62179,0.8597445 -2.50108,1.9344252 V 6.972621 q 0,1.7585684 0.23448,2.2861389 0.25402,0.5275705 0.72297,0.8011251 0.48849,0.254016 1.95396,0.254016 v 0.703427 h -8.85146 v -0.703427 q 1.231,0 1.71949,-0.254016 0.48849,-0.2735546 0.74251,-0.8402044 Q 329.78,8.6334911 329.78,6.972621 V 0.13374395 q 0,-2.95048695 -0.17585,-3.81023145 -0.13678,-0.6448084 -0.42988,-0.8792842 -0.29309,-0.2540155 -0.80112,-0.2540155 -0.54711,0 -1.30916,0.2930948 l -0.29309,-0.7034274 5.39294,-2.1884406 h 0.8402 z M 368.957,8.4380946 q -2.75509,2.1298214 -3.45852,2.4619954 -1.05514,0.488492 -2.24706,0.488492 -1.85626,0 -3.06772,-1.270078 -1.19192,-1.2700767 -1.19192,-3.3412795 0,-1.3091565 0.58619,-2.2665992 0.80112,-1.3286962 2.77463,-2.5010751 1.99304,-1.17237889 6.6044,-2.85278868 V -1.5466658 q 0,-2.6769319 -0.85974,-3.673454 -0.84021,-0.9965221 -2.462,-0.9965221 -1.231,0 -1.95396,0.6643481 -0.74251,0.664348 -0.74251,1.5240926 l 0.0391,1.1332996 q 0,0.8988239 -0.46895,1.3873151 -0.44942,0.4884912 -1.19192,0.4884912 -0.72297,0 -1.19192,-0.5080309 -0.44941,-0.5080308 -0.44941,-1.387315 0,-1.6804098 1.71949,-3.0872645 1.71949,-1.4068547 4.82629,-1.4068547 2.38384,0 3.90793,0.8011256 1.15284,0.6057291 1.69995,1.8953459 0.35171,0.8402049 0.35171,3.4389782 V 4.80372 q 0,2.559694 0.0977,3.1458834 0.0977,0.5666498 0.31263,0.7620463 0.23448,0.1953965 0.52758,0.1953965 0.31263,0 0.54711,-0.1367775 0.41033,-0.2540155 1.58271,-1.4263944 v 1.0942203 q -2.18844,2.9309474 -4.18149,2.9309474 -0.95744,0 -1.52409,-0.664348 -0.56665,-0.664348 -0.58619,-2.2665994 z m 0,-1.2700771 V 0.34868009 q -2.95049,1.17237891 -3.81023,1.66087011 -1.54363,0.8597446 -2.20798,1.7976477 -0.66435,0.9379031 -0.66435,2.0516631 0,1.4068547 0.84021,2.3447579 0.8402,0.9183634 1.93442,0.9183634 1.48501,0 3.90793,-1.9539648 z m 12.83754,-10.7858861 q 3.14589,-3.7906918 5.99868,-3.7906918 1.46547,0 2.52061,0.7425066 1.05514,0.722967 1.68041,2.4033768 0.42987,1.1723789 0.42987,3.59529536 V 6.972621 q 0,1.6999494 0.27356,2.3056785 0.21493,0.4884912 0.68389,0.7620465 0.48849,0.273555 1.7781,0.273555 v 0.703427 h -8.85146 v -0.703427 h 0.37126 q 1.25053,0 1.73903,-0.3712534 0.50803,-0.390793 0.70342,-1.1332996 0.0782,-0.2930948 0.0782,-1.836727 v -7.32736826 q 0,-2.44245604 -0.64481,-3.53667644 -0.62527,-1.1137599 -2.12982,-1.1137599 -2.32522,0 -4.6309,2.5401543 V 6.972621 q 0,1.8171873 0.21494,2.2470596 0.27356,0.5666498 0.74251,0.8402044 0.48849,0.254016 1.95396,0.254016 v 0.703427 h -8.85146 v -0.703427 h 0.39079 q 1.36778,0 1.83673,-0.6838878 0.48849,-0.7034273 0.48849,-2.6573922 V 0.32914044 q 0,-3.22404204 -0.15631,-3.92746934 -0.13678,-0.7034274 -0.44942,-0.9574428 -0.29309,-0.2540155 -0.80112,-0.2540155 -0.54711,0 -1.30916,0.2930948 l -0.29309,-0.7034274 5.39294,-2.1884406 h 0.8402 z m 42.02978,1.11376 q 2.75509,0.5861894 4.12287,1.87580626 1.89534,1.79764764 1.89534,4.39642094 0,1.9735045 -1.25053,3.7906918 -1.25054,1.7976477 -3.43898,2.6378526 -2.1689,0.820665 -6.64348,0.820665 h -12.50538 v -0.722967 h 0.99652 q 1.66087,0 2.38384,-1.0551408 0.44941,-0.6838877 0.44941,-2.9114076 V -10.78892 q 0,-2.461995 -0.56665,-3.106804 -0.76204,-0.859744 -2.2666,-0.859744 h -0.99652 v -0.722967 h 11.45024 q 3.2045,0 5.13892,0.468951 2.93095,0.703428 4.47458,2.501075 1.54364,1.778108 1.54364,4.1033265 0,1.9930442 -1.21146,3.5757557 -1.21146,1.5631719 -3.57576,2.3252182 z m -10.23877,-1.055141 q 0.72296,0.1367775 1.64133,0.2149361 0.9379,0.058619 2.05166,0.058619 2.85279,0 4.27918,-0.6057291 1.44594,-0.6252687 2.20798,-1.8953459 0.76205,-1.2700772 0.76205,-2.7746301 0,-2.3252183 -1.89535,-3.9665483 -1.89534,-1.641331 -5.52972,-1.641331 -1.95396,0 -3.51713,0.429872 z m 0,12.6616923 q 2.2666,0.5275705 4.47458,0.5275705 3.53667,0 5.39294,-1.5827115 1.85627,-1.6022512 1.85627,-3.9470091 0,-1.5436322 -0.84021,-2.9700266 -0.8402,-1.42639432 -2.73555,-2.2470596 -1.89535,-0.8206652 -4.68952,-0.8206652 -1.21145,0 -2.0712,0.039079 -0.85974,0.039079 -1.38731,0.1367775 z m 24.93259,-16.5110031 v 4.0251676 q 2.24706,-4.0251676 4.61136,-4.0251676 1.07468,0 1.77811,0.664348 0.70342,0.6448084 0.70342,1.504553 0,0.7620463 -0.50803,1.2896168 -0.50803,0.5275705 -1.21146,0.5275705 -0.68388,0 -1.54363,-0.6643481 -0.8402,-0.6838877 -1.25054,-0.6838877 -0.35171,0 -0.76204,0.390793 -0.87929,0.8011256 -1.81719,2.6378526 v 8.5779057 q 0,1.4850133 0.37125,2.2470596 0.25402,0.5275706 0.89883,0.8792842 0.64481,0.3517138 1.85626,0.3517138 v 0.703427 h -9.16409 v -0.703427 q 1.36777,0 2.03212,-0.4298724 0.48849,-0.3126343 0.68389,-0.996522 0.0977,-0.3321741 0.0977,-1.895346 V 0.05558536 q 0,-3.12634376 -0.13678,-3.71253326 -0.11724,-0.6057291 -0.46895,-0.8792842 -0.33218,-0.2735551 -0.84021,-0.2735551 -0.60573,0 -1.36777,0.2930948 l -0.1954,-0.7034274 5.41248,-2.1884406 z m 18.2305,15.846655 q -2.75509,2.1298214 -3.45852,2.4619954 -1.05514,0.488492 -2.24706,0.488492 -1.85626,0 -3.06772,-1.270078 -1.19192,-1.2700767 -1.19192,-3.3412795 0,-1.3091565 0.58619,-2.2665992 0.80113,-1.3286962 2.77463,-2.5010751 1.99304,-1.17237889 6.6044,-2.85278868 V -1.5466658 q 0,-2.6769319 -0.85974,-3.673454 -0.84021,-0.9965221 -2.462,-0.9965221 -1.231,0 -1.95396,0.6643481 -0.74251,0.664348 -0.74251,1.5240926 l 0.0391,1.1332996 q 0,0.8988239 -0.46895,1.3873151 -0.44941,0.4884912 -1.19192,0.4884912 -0.72297,0 -1.19192,-0.5080309 -0.44941,-0.5080308 -0.44941,-1.387315 0,-1.6804098 1.71949,-3.0872645 1.71949,-1.4068547 4.82629,-1.4068547 2.38384,0 3.90793,0.8011256 1.15284,0.6057291 1.69995,1.8953459 0.35171,0.8402049 0.35171,3.4389782 V 4.80372 q 0,2.559694 0.0977,3.1458834 0.0977,0.5666498 0.31264,0.7620463 0.23447,0.1953965 0.52757,0.1953965 0.31263,0 0.54711,-0.1367775 0.41033,-0.2540155 1.58271,-1.4263944 v 1.0942203 q -2.18844,2.9309474 -4.18149,2.9309474 -0.95744,0 -1.52409,-0.664348 -0.56665,-0.664348 -0.58619,-2.2665994 z m 0,-1.2700771 V 0.34868009 q -2.95049,1.17237891 -3.81023,1.66087011 -1.54363,0.8597446 -2.20798,1.7976477 -0.66435,0.9379031 -0.66435,2.0516631 0,1.4068547 0.84021,2.3447579 0.8402,0.9183634 1.93442,0.9183634 1.48502,0 3.90793,-1.9539648 z m 12.1732,-23.9360695 q 0.82066,0 1.38731,0.586189 0.58619,0.56665 0.58619,1.387315 0,0.820666 -0.58619,1.406855 -0.56665,0.58619 -1.38731,0.58619 -0.82067,0 -1.40686,-0.58619 -0.58619,-0.586189 -0.58619,-1.406855 0,-0.820665 0.56665,-1.387315 0.58619,-0.586189 1.4264,-0.586189 z m 1.62179,9.3594916 V 6.972621 q 0,1.6804098 0.23447,2.2470596 0.25402,0.5471101 0.72297,0.8206654 0.48849,0.273555 1.75857,0.273555 v 0.703427 h -8.69514 v -0.703427 q 1.30915,0 1.75856,-0.254016 0.44942,-0.254015 0.70343,-0.8402044 0.27356,-0.5861895 0.27356,-2.2470596 V 0.07512501 q 0,-2.91140761 -0.17586,-3.77115221 -0.13678,-0.6252687 -0.42987,-0.8597445 -0.2931,-0.2540155 -0.80113,-0.2540155 -0.54711,0 -1.32869,0.2930948 l -0.27356,-0.7034274 5.39294,-2.1884406 z m 10.16063,3.7906918 q 3.14588,-3.7906918 5.99867,-3.7906918 1.46547,0 2.52062,0.7425066 1.05514,0.722967 1.6804,2.4033768 0.42988,1.1723789 0.42988,3.59529536 V 6.972621 q 0,1.6999494 0.27355,2.3056785 0.21494,0.4884912 0.68389,0.7620465 0.48849,0.273555 1.77811,0.273555 v 0.703427 h -8.85146 v -0.703427 h 0.37125 q 1.25054,0 1.73903,-0.3712534 0.50803,-0.390793 0.70343,-1.1332996 0.0782,-0.2930948 0.0782,-1.836727 v -7.32736826 q 0,-2.44245604 -0.64481,-3.53667644 -0.62527,-1.1137599 -2.12983,-1.1137599 -2.32521,0 -4.63089,2.5401543 V 6.972621 q 0,1.8171873 0.21493,2.2470596 0.27356,0.5666498 0.74251,0.8402044 0.48849,0.254016 1.95397,0.254016 v 0.703427 h -8.85146 v -0.703427 h 0.39079 q 1.36777,0 1.83672,-0.6838878 0.4885,-0.7034273 0.4885,-2.6573922 V 0.32914044 q 0,-3.22404204 -0.15632,-3.92746934 -0.13678,-0.7034274 -0.44941,-0.9574428 -0.2931,-0.2540155 -0.80113,-0.2540155 -0.54711,0 -1.30915,0.2930948 l -0.2931,-0.7034274 5.39294,-2.1884406 h 0.84021 z"
       id="text3"
       aria-label="          Human Brain      " />
  </g>
</svg>
