<svg viewBox="-50 0 500 200" class="h-dvh w-auto absolute top-0 left-1/2 -translate-x-1/2" role="img" aria-label="A background consisting of diagonal stripes with shifting light colors." version="1.1"
   xmlns="http://www.w3.org/2000/svg">
   <g transform="translate(87.783249,-55.596058)" class="angles-group">
      <rect id="rect1178" width="50" height="222.46034" x="-78.295883" y="61.839588" transform="matrix(1,0,-0.43787335,0.89903667,0,0)"/>
      <rect id="use1472" width="50" height="222.46034" x="18.470615" y="61.839588" transform="matrix(1,0,-0.43787335,0.89903667,0,0)" />
      <rect id="use1474" width="50" height="222.46034" x="115.23713" y="61.839588" transform="matrix(1,0,-0.43787335,0.89903667,0,0)" />
      <rect id="use1476" width="50" height="222.46034" x="212.00363" y="61.839588" transform="matrix(1,0,-0.43787335,0.89903667,0,0)" />
      <rect id="use1478" width="50" height="222.46034" x="308.77011" y="61.839588" transform="matrix(1,0,-0.43787335,0.89903667,0,0)" />
      <rect id="rect1612" width="50" height="221.90028" x="-228.86076" y="61.683907" transform="matrix(1,0,0.43318357,0.90130572,0,0)" />
      <rect id="use1616" width="50" height="221.9003" x="-132.09425" y="61.683907" transform="matrix(1,0,0.43318357,0.90130572,0,0)" />
      <rect id="use1618" width="50" height="221.9003" x="-35.327747" y="61.683907" transform="matrix(1,0,0.43318357,0.90130572,0,0)" />
      <rect id="use1620" width="50" height="221.9003" x="61.438751" y="61.683907" transform="matrix(1,0,0.43318357,0.90130572,0,0)" />
      <rect id="use1622" width="50" height="221.9003" x="158.20526" y="61.683907" transform="matrix(1,0,0.43318357,0.90130572,0,0)" />
      <rect id="rect242" width="50" height="222.46034" x="405.50583" y="61.839588" transform="matrix(1,0,-0.43787335,0.89903667,0,0)" />
      <rect id="rect244" width="50" height="221.90028" x="254.94096" y="61.683907" transform="matrix(1,0,0.43318357,0.90130572,0,0)" />
   </g>
</svg>
