<?xml version="1.0" encoding="UTF-8" standalone="no"?>
<svg
   width="620"
   zoomAndPan="magnify"
   viewBox="0 0 465 243.75"
   height="325"
   preserveAspectRatio="xMidYMid meet"
   version="1.0"
   id="svg213"
   xmlns:xlink="http://www.w3.org/1999/xlink"
   xmlns="http://www.w3.org/2000/svg"
   xmlns:svg="http://www.w3.org/2000/svg">
  <defs
     id="defs7">
    <g
       id="g2" />
    <clipPath
       id="id1">
      <path
         d="M 36.394531,71.878906 H 175.89453 V 221.87891 H 36.394531 Z M 36.394531,71.878906"
         clip-rule="nonzero"
         id="path4" />
    </clipPath>
    <clipPath
       clipPathUnits="userSpaceOnUse"
       id="clipPath6181">
      <use
         x="0"
         y="0"
         xlink:href="#path4"
         id="use1099" />
    </clipPath>
  </defs>
  <path
     fill="#000000"
     d="M 170.48437,216.13281 156.02734,171.28906 C 156.01953,171.26953 156.01562,171.25391 156.00781,171.23437 L 155.71094,170.20312 C 155.5625,169.68359 155.62891,169.13281 155.89844,168.66797 161.34766,159.29297 164.22656,148.57422 164.22656,137.67578 164.22656,103.56641 136.44141,75.816406 102.28516,75.816406 68.132812,75.816406 40.347656,103.56641 40.347656,137.67578 40.347656,171.78125 68.132812,199.53125 102.28516,199.53125 110.43359,199.53125 118.35156,197.97266 125.82031,194.91016 126.64453,194.57031 127.56641,194.83203 128.09766,195.48828 128.19531,195.51562 128.28906,195.55469 128.38281,195.60156 Z M 175.0625,221.41016 C 174.69922,221.72656 174.23828,221.89062 173.77344,221.89062 173.48047,221.89062 173.18359,221.82422 172.91016,221.69141 L 126.65625,199.13281 C 126.53906,199.07422 126.43359,199.01172 126.33594,198.9375 118.67969,201.9375 110.59375,203.46094 102.28516,203.46094 93.394531,203.46094 84.765625,201.72266 76.644531,198.28906 68.800781,194.97656 61.753906,190.23437 55.703125,184.19141 49.65625,178.15234 44.90625,171.11328 41.585938,163.28125 38.152344,155.16797 36.410156,146.55469 36.410156,137.67578 36.410156,128.79297 38.152344,120.17578 41.585938,112.06641 44.90625,104.23047 49.65625,97.195312 55.703125,91.15625 61.753906,85.113281 68.800781,80.371094 76.644531,77.058594 84.765625,73.625 93.394531,71.886719 102.28516,71.886719 111.17578,71.886719 119.80469,73.625 127.92969,77.058594 135.77344,80.371094 142.81641,85.113281 148.86719,91.15625 154.91797,97.195312 159.66406,104.23047 162.98437,112.06641 166.42187,120.17578 168.16406,128.79297 168.16406,137.67578 168.16406,143.55859 167.38281,149.39844 165.84766,155.02734 164.42969,160.21094 162.37109,165.21484 159.72266,169.91016 L 159.78516,170.11328 175.64844,219.32422 C 175.89062,220.07422 175.66016,220.89453 175.0625,221.41016 Z M 149.34375,171.04297 161.51172,203.67578 C 162.03906,205.09766 160.53125,206.42578 159.1875,205.71875 L 127.93359,189.31641 C 120.21094,193.15234 111.5,195.30859 102.28516,195.30859 70.414062,195.30859 44.574219,169.50391 44.574219,137.67578 44.574219,105.84375 70.414062,80.039062 102.28516,80.039062 134.16016,80.039062 159.99609,105.84375 159.99609,137.67578 159.99609,150.10937 156.05078,161.62891 149.34375,171.04297"
     fill-opacity="1"
     fill-rule="nonzero"
     id="path9"
     transform="matrix(0.574544 0 0 0.574544 22.1252 -15.3029)"
     clip-path="url(#clipPath6181)" />
  <path
     fill="#ffffff"
     d="M 86.568725,80.914564 C 85.240532,80.914564 84.161928,81.990194 84.161928,83.318394 84.161928,84.643614 85.240532,85.722214 86.568725,85.722214 87.899893,85.722214 88.975527,84.643614 88.975527,83.318394 88.975527,81.990194 87.899893,80.914564 86.568725,80.914564 Z M 78.373729,80.914564 C 77.045527,80.914564 75.966926,81.990194 75.966926,83.318394 75.966926,84.643614 77.045527,85.722214 78.373729,85.722214 79.704897,85.722214 80.780526,84.643614 80.780526,83.318394 80.780526,81.990194 79.704897,80.914564 78.373729,80.914564 Z M 70.178723,80.914564 C 68.850526,80.914564 67.771923,81.990194 67.771923,83.318394 67.771923,84.643614 68.850526,85.722214 70.178723,85.722214 71.509891,85.722214 72.588493,84.643614 72.588493,83.318394 72.588493,81.990194 71.509891,80.914564 70.178723,80.914564 Z M 90.208637,94.279728 H 91.24564 C 93.269137,94.279728 94.627042,93.905348 95.319371,93.162498 96.008726,92.416688 96.356374,90.871584 96.356374,88.527184 V 82.447784 C 96.356374,79.761684 96.730767,77.848124 97.476578,76.710094 98.22239,75.569094 99.538694,74.746034 101.41957,74.243864 99.520872,73.774394 98.201586,72.969154 97.461723,71.831122 96.724826,70.693096 96.356374,68.776571 96.356374,66.08155 V 59.978381 C 96.356374,57.639929 96.005752,56.106705 95.304516,55.37575 94.606246,54.647768 93.236451,54.28229 91.195132,54.28229 H 90.208637 V 50.508673 H 91.296156 C 93.114623,50.508673 94.534933,50.606723 95.563021,50.799864 96.591116,50.992997 97.455774,51.307967 98.162959,51.744757 99.090022,52.318224 99.740751,53.132374 100.12108,54.193155 100.49844,55.253929 100.68861,57.027828 100.68861,59.517827 V 65.653674 C 100.68861,68.143673 101.14621,69.896776 102.06138,70.915948 102.97656,71.935121 104.53355,72.443224 106.73236,72.443224 106.85121,72.443224 107.03246,72.437283 107.27611,72.419453 107.51679,72.401623 107.69804,72.392716 107.8169,72.392716 V 76.166334 C 107.68319,76.166334 107.49005,76.160394 107.23749,76.142564 106.98492,76.124744 106.8007,76.115824 106.68482,76.115824 104.50086,76.115824 102.95279,76.623924 102.04652,77.637164 101.14026,78.650394 100.68861,80.385664 100.68861,82.848914 V 89.029344 C 100.68861,91.510424 100.49844,93.272438 100.12108,94.318358 99.740751,95.367248 99.090022,96.175458 98.162959,96.745958 97.405266,97.215438 96.493058,97.548228 95.42337,97.750278 94.356656,97.952338 92.930404,98.053358 91.144616,98.053358 H 90.208637 Z M 66.53881,54.28229 H 65.501807 C 63.478313,54.28229 62.123374,54.653709 61.431048,55.39952 60.738721,56.145332 60.394044,57.690438 60.394044,60.034837 V 66.114236 C 60.394044,68.797368 60.019653,70.710926 59.273842,71.851927 58.52506,72.992924 57.211721,73.815994 55.330852,74.318154 57.229549,74.787624 58.54586,75.592864 59.285728,76.727914 60.022624,77.868924 60.394044,79.785454 60.394044,82.480464 V 88.583634 C 60.394044,90.922094 60.744664,92.455328 61.442933,93.186278 62.144174,93.914258 63.513969,94.279728 65.55232,94.279728 H 66.53881 V 98.053358 H 65.451294 C 63.635794,98.053358 62.212514,97.955298 61.184425,97.762168 60.159307,97.569028 59.291671,97.254068 58.584488,96.814298 57.660396,96.243798 57.006697,95.429648 56.629335,94.368878 56.251973,93.308098 56.061806,91.534194 56.061806,89.044204 V 82.905374 C 56.061806,80.418354 55.604216,78.662274 54.689039,77.646074 53.77386,76.626894 52.213898,76.115824 50.015094,76.115824 49.899211,76.115824 49.717958,76.124744 49.474308,76.142564 49.230656,76.160394 49.049403,76.166334 48.93352,76.166334 V 72.392716 C 49.067231,72.392716 49.26037,72.401623 49.512935,72.419453 49.762529,72.437283 49.949725,72.443224 50.065607,72.443224 52.249555,72.443224 53.79466,71.938095 54.700924,70.924863 55.607188,69.911632 56.061806,68.173385 56.061806,65.713105 V 59.532683 C 56.061806,57.051599 56.251973,55.289581 56.629335,54.240697 57.006697,53.194779 57.660396,52.38657 58.584488,51.81607 59.342184,51.346593 60.257362,51.010827 61.324079,50.811745 62.393768,50.609697 63.820019,50.508673 65.602833,50.508673 H 66.53881 V 54.28229"
     fill-opacity="1"
     fill-rule="nonzero"
     id="path13"
     style="stroke-width:0.760667"
     transform="matrix(0.755316 0 0 0.755316 21.6956 7.69113)" />
  <g
     id="g55"
     transform="translate(285.466, 170.843)" />
  <path
     id="path125"
     transform="matrix(1.29339 0 0 1.29339 322.359 188.965)"
     d="M 7.046875,7.703125 10.921875,-1.484375 H 9.390625 L 0.53125,-21.546875 H 4.53125 L 11.453125,-5.0625 H 12.40625 L 18.78125,-21.546875 H 22.75 L 10.71875,7.703125 Z M 7.046875,7.703125 M -6.3813862,0 -10.178261,-3.75 V -18.671875 H -12.443886 V -21.546875 H -10.100136 L -9.1938862,-27.078125 H -6.5532612 V -21.546875 H -1.9751362 V -18.671875 H -6.5532612 V -5.03125 L -4.6157612,-3.015625 H -1.0376362 V 0 Z M -6.3813862,0 M -20.185421,0 -23.982296,-3.75 V -18.671875 H -26.247921 V -21.546875 H -23.904171 L -22.997921,-27.078125 H -20.357296 V -21.546875 H -15.779171 V -18.671875 H -20.357296 V -5.03125 L -18.419796,-3.015625 H -14.841671 V 0 Z M -20.185421,0 M -44.424768,0 -48.737268,-4.328125 V -17.21875 L -44.424768,-21.546875 H -34.815393 L -30.487268,-17.21875 V -9.4375 H -45.112268 V -5.28125 L -42.846643,-3.015625 H -30.862268 V 0 Z M -45.112268,-12.3125 H -34.112268 V -16.40625 L -36.377893,-18.671875 H -42.846643 L -45.112268,-16.40625 Z M -45.112268,-12.3125 M -65.797852,0 -74.954102,-21.546875 H -71.000977 L -64.032227,-3.625 H -63.079102 L -56.157227,-21.546875 H -52.157227 L -61.313477,0 Z M -65.797852,0 M -92.921354,0 -97.233854,-4.328125 V -17.21875 L -92.921354,-21.546875 H -82.702604 L -78.374479,-17.21875 V -4.328125 L -82.702604,0 Z M -91.343229,-2.890625 H -84.265104 L -81.999479,-5.15625 -82.030729,-16.40625 -84.265104,-18.671875 H -91.343229 L -93.608854,-16.40625 V -5.15625 Z M -91.343229,-2.890625 M -115.95385,0 -120.26635,-4.328125 V -17.21875 L -115.95385,-21.546875 H -106.09448 L -102.31323,-17.796875 V -14.375 H -105.93823 V -16.609375 L -108.00073,-18.671875 H -114.37573 L -116.64135,-16.40625 V -5.3125 L -114.37573,-3.015625 H -102.51635 V 0 Z M -115.95385,0 M -140.90853,6.0306636e-4 -145.20541,-4.3275269 V -9.233781 L -140.90853,-13.561903 H -129.9554 V -16.233781 L -132.17415,-18.499409 H -142.39291 V -21.546285 H -130.61165 L -126.3304,-17.218155 V 6.0306636e-4 H -129.9554 V -3.3431525 L -133.29915,6.0306636e-4 Z M -139.31478,-2.8900254 H -134.2054 L -129.9554,-7.0931506 V -10.718152 L -139.31478,-10.671275 -141.5804,-8.452524 V -5.155653 Z M -139.31478,-2.8900254 M -153.64516,-23.890625 V -28.765625 H -150.02016 V -23.890625 Z M -159.16079,7.703125 V 4.703125 H -155.58266 L -153.64516,2.671875 V -21.546875 H -150.02016 V 3.953125 L -153.84829,7.703125 Z M -159.16079,7.703125 M -36.755974,-33.565282 V -63.924657 H -33.130974 V -51.690282 L -29.834099,-55.112157 H -21.880974 L -17.599724,-50.784032 V -33.565282 H -21.224724 V -49.877782 L -23.396599,-52.237157 H -28.880974 L -33.130974,-47.909032 V -33.565282 Z M -36.755974,-33.565282 M -55.961118,-33.565282 -60.273618,-37.893407 V -50.784032 L -55.961118,-55.112157 H -46.101743 L -42.320493,-51.362157 V -47.940282 H -45.945493 V -50.174657 L -48.007993,-52.237157 H -54.382993 L -56.648618,-49.971532 V -38.877782 L -54.382993,-36.580907 H -42.523618 V -33.565282 Z M -55.961118,-33.565282 M -69.545629,-33.565282 -73.342504,-37.315282 V -52.237157 H -75.608129 V -55.112157 H -73.264379 L -72.358129,-60.643407 H -69.717504 V -55.112157 H -65.139379 V -52.237157 H -69.717504 V -38.596532 L -67.780004,-36.580907 H -64.201879 V -33.565282 Z M -69.545629,-33.565282 M -83.934319,-57.455907 V -62.330907 H -80.309319 V -57.455907 Z M -83.934319,-33.565282 V -55.112157 H -80.309319 V -33.565282 Z M -83.934319,-33.565282 M -125.59151,-33.565282 V -55.112157 H -121.96651 V -51.237157 L -118.21651,-55.112157 H -110.26339 L -106.46651,-51.284032 -102.76339,-55.112157 H -94.810264 L -90.482139,-50.784032 V -33.565282 H -94.107139 V -49.877782 L -96.294639,-52.237157 H -101.81026 L -105.98214,-48.034032 V -33.565282 H -109.60714 L -109.56026,-49.877782 -111.77901,-52.237157 H -117.26339 L -121.96651,-47.455907 V -33.565282 Z M -125.59151,-33.565282"
     class="logo-color-shift" />
  <path
     id="path205"
     transform="matrix(1.29339 0 0 1.29339 278.568 217.447)"
     d="M 2.71875,0 H 1.59375 V -10.40625 H 4.015625 C 4.847656,-10.40625 5.476562,-10.207031 5.90625,-9.8125 6.34375,-9.414062 6.5625,-8.863281 6.5625,-8.15625 V -5.921875 C 6.5625,-4.828125 6.09375,-4.132812 5.15625,-3.84375 L 7.125,0 H 5.890625 L 4.015625,-3.6875 H 2.71875 Z M 5.4375,-5.921875 V -8.15625 C 5.4375,-8.5625 5.3125,-8.875 5.0625,-9.09375 4.820312,-9.320312 4.472656,-9.4375 4.015625,-9.4375 H 2.71875 V -4.640625 H 4.015625 C 4.960938,-4.640625 5.4375,-5.066406 5.4375,-5.921875 Z M 5.4375,-5.921875 M -0.80600254,0 H -5.5247525 V -10.40625 H -0.96225254 V -9.4375 H -4.3997525 V -5.765625 H -1.6028775 V -4.796875 H -4.3997525 V -0.953125 H -0.80600254 Z M -0.80600254,0 M -14.620954,0 H -15.745954 V -10.40625 H -14.058454 L -12.230329,-3.53125 -10.402204,-10.40625 H -8.7147042 V 0 H -9.8397042 V -8.609375 L -11.714704,-1.59375 H -12.745954 L -14.620954,-8.609375 Z M -14.620954,0 M -24.842929,0 H -25.967929 V -10.40625 H -24.280429 L -22.452304,-3.53125 -20.624179,-10.40625 H -18.936679 V 0 H -20.061679 V -8.609375 L -21.936679,-1.59375 H -22.967929 L -24.842929,-8.609375 Z M -24.842929,0 M -32.239339,-10.40625 H -30.551839 L -28.192464,0 H -29.317464 L -29.864339,-2.40625 H -32.926839 L -33.458089,0 H -34.583089 Z M -31.395589,-9.15625 -32.708089,-3.359375 H -30.083089 Z M -31.395589,-9.15625 M -40.262872,0 H -41.387872 V -10.40625 H -38.965997 C -38.133966,-10.40625 -37.50506,-10.207031 -37.075372,-9.8125 -36.637872,-9.414062 -36.419122,-8.863281 -36.419122,-8.15625 V -5.921875 C -36.419122,-4.828125 -36.887872,-4.132812 -37.825372,-3.84375 L -35.856622,0 H -37.090997 L -38.965997,-3.6875 H -40.262872 Z M -37.544122,-5.921875 V -8.15625 C -37.544122,-8.5625 -37.669122,-8.875 -37.919122,-9.09375 -38.16131,-9.320312 -38.508966,-9.4375 -38.965997,-9.4375 H -40.262872 V -4.640625 H -38.965997 C -38.020684,-4.640625 -37.544122,-5.066406 -37.544122,-5.921875 Z M -37.544122,-5.921875 M -47.245608,-4.3125 V -5.28125 H -44.339358 V 0 H -44.823733 L -45.229983,-1.03125 C -45.460452,-0.644531 -45.757327,-0.335938 -46.120608,-0.109375 -46.487795,0.117188 -46.878421,0.234375 -47.292483,0.234375 -48.847171,0.234375 -49.620608,-0.507812 -49.620608,-2 V -8.40625 C -49.620608,-9.113281 -49.401858,-9.660156 -48.964358,-10.046875 -48.526858,-10.441406 -47.870608,-10.640625 -46.995608,-10.640625 -46.120608,-10.640625 -45.460452,-10.441406 -45.011233,-10.046875 -44.565921,-9.660156 -44.339358,-9.113281 -44.339358,-8.40625 V -7.515625 H -45.464358 V -8.40625 C -45.464358,-9.257812 -45.972171,-9.6875 -46.979983,-9.6875 -47.991702,-9.6875 -48.495608,-9.257812 -48.495608,-8.40625 V -2 C -48.495608,-1.59375 -48.413577,-1.273438 -48.245608,-1.046875 -48.081545,-0.828125 -47.769045,-0.71875 -47.308108,-0.71875 -46.851077,-0.71875 -46.429202,-0.898438 -46.042483,-1.265625 -45.659671,-1.628906 -45.464358,-1.976562 -45.464358,-2.3125 V -4.3125 Z M -47.245608,-4.3125 M -52.34074,-8.40625 V -2 C -52.34074,-1.28125 -52.571209,-0.726562 -53.02824,-0.34375 -53.477459,0.0390625 -54.15324,0.234375 -55.05949,0.234375 -55.957927,0.234375 -56.633709,0.0390625 -57.09074,-0.34375 -57.551677,-0.726562 -57.77824,-1.28125 -57.77824,-2 V -8.40625 C -57.77824,-9.113281 -57.555584,-9.660156 -57.106365,-10.046875 -56.649334,-10.441406 -55.973553,-10.640625 -55.075115,-10.640625 -54.168865,-10.640625 -53.489177,-10.441406 -53.02824,-10.046875 -52.571209,-9.660156 -52.34074,-9.113281 -52.34074,-8.40625 Z M -53.450115,-2 V -8.40625 C -53.450115,-9.257812 -53.989177,-9.6875 -55.05949,-9.6875 -56.12199,-9.6875 -56.65324,-9.257812 -56.65324,-8.40625 V -2 C -56.65324,-1.144531 -56.12199,-0.71875 -55.05949,-0.71875 -53.989177,-0.71875 -53.450115,-1.144531 -53.450115,-2 Z M -53.450115,-2 M -64.176773,0 H -65.301773 V -10.40625 H -62.879898 C -62.047867,-10.40625 -61.418961,-10.207031 -60.989273,-9.8125 -60.551773,-9.414062 -60.333023,-8.863281 -60.333023,-8.15625 V -5.921875 C -60.333023,-4.828125 -60.801773,-4.132812 -61.739273,-3.84375 L -59.770523,0 H -61.004898 L -62.879898,-3.6875 H -64.176773 Z M -61.458023,-5.921875 V -8.15625 C -61.458023,-8.5625 -61.583023,-8.875 -61.833023,-9.09375 -62.075211,-9.320312 -62.422867,-9.4375 -62.879898,-9.4375 H -64.176773 V -4.640625 H -62.879898 C -61.934585,-4.640625 -61.458023,-5.066406 -61.458023,-5.921875 Z M -61.458023,-5.921875 M -71.691205,0 H -72.816205 V -10.40625 H -70.39433 C -69.562299,-10.40625 -68.933393,-10.207031 -68.503705,-9.8125 -68.066205,-9.414062 -67.847455,-8.863281 -67.847455,-8.15625 V -5.4375 C -67.847455,-4.726562 -68.062299,-4.175781 -68.48808,-3.78125 -68.917767,-3.394531 -69.55058,-3.203125 -70.39433,-3.203125 H -71.691205 Z M -68.972455,-5.4375 V -8.15625 C -68.972455,-8.5625 -69.097455,-8.875 -69.347455,-9.09375 -69.589643,-9.320312 -69.937299,-9.4375 -70.39433,-9.4375 H -71.691205 V -4.15625 H -70.39433 C -69.449017,-4.15625 -68.972455,-4.582031 -68.972455,-5.4375 Z M -68.972455,-5.4375" />
</svg>
