<svg viewBox="0 0 8122.3213 157.01704"
   version="1.1"
   xmlns="http://www.w3.org/2000/svg">
   <g transform="translate(556.79921,879.18882)">
      <path style="fill:none;stroke:#000000;stroke-width:5;stroke-linecap:butt;"
         d="M -555.03144,-800.6803 C -516.09329,-761.74215 -478.84706,-724.67178 -435.63754,-724.67178 -392.42802,-724.67178 -355.18178,-761.74215 -316.24363,-800.6803 -277.30549,-839.61845 -240.05925,-876.68882 -196.84973,-876.68882 -153.64021,-876.68882 -116.39397,-839.61845 -77.455814,-800.6803 -38.517694,-761.74215 -1.2714437,-724.67178 41.938056,-724.67178 85.147596,-724.67178 122.39381,-761.74215 161.33197,-800.6803 200.27014,-839.61845 237.51634,-876.68882 280.72589,-876.68882 323.93543,-876.68882 361.18164,-839.61845 400.11977,-800.6803 439.05787,-761.74215 476.30417,-724.67178 519.51367,-724.67178 562.72317,-724.67178 599.96947,-761.74215 638.90757,-800.6803 677.84577,-839.61845 715.09197,-876.68882 758.30147,-876.68882 801.51107,-876.68882 838.75727,-839.61845 877.69537,-800.6803 916.63357,-761.74215 953.87977,-724.67178 997.08927,-724.67178 1040.2988,-724.67178 1077.5451,-761.74215 1116.4833,-800.6803 1155.4214,-839.61845 1192.6676,-876.68882 1235.8771,-876.68882 1279.0867,-876.68882 1316.3329,-839.61845 1355.271,-800.6803 1394.2092,-761.74215 1431.4554,-724.67178 1474.665,-724.67178 1517.8745,-724.67178 1555.1207,-761.74215 1594.0589,-800.6803 1632.997,-839.61845 1670.2432,-876.68882 1713.4527,-876.68882 1756.6623,-876.68882 1793.9085,-839.61845 1832.8466,-800.6803 1871.7848,-761.74215 1909.031,-724.67178 1952.2406,-724.67178 1995.4501,-724.67178 2032.6963,-761.74215 2071.6345,-800.6803 2110.5726,-839.61845 2147.8188,-876.68882 2191.0284,-876.68882 2234.2379,-876.68882 2271.4841,-839.61845 2310.4223,-800.6803 2349.3604,-761.74215 2386.6067,-724.67178 2429.8162,-724.67178 2473.0257,-724.67178 2510.2719,-761.74215 2549.2101,-800.6803 2588.1482,-839.61845 2625.3944,-876.68882 2668.604,-876.68882 2711.8135,-876.68882 2749.0597,-839.61845 2787.9979,-800.6803 2826.936,-761.74215 2864.1823,-724.67178 2907.3918,-724.67178 2950.6013,-724.67178 2987.8476,-761.74215 3026.7857,-800.6803 3065.7238,-839.61845 3102.9701,-876.68882 3146.1796,-876.68882 3189.3891,-876.68882 3226.6353,-839.61845 3265.5735,-800.6803 3304.5117,-761.74215 3341.7579,-724.67178 3384.9674,-724.67178 3428.1769,-724.67178 3465.4232,-761.74215 3504.3613,-800.6803 3543.2995,-839.61845 3580.5457,-876.68882 3623.7552,-876.68882 3666.9647,-876.68882 3704.211,-839.61845 3743.1491,-800.6803 3782.0873,-761.74215 3819.3335,-724.67178 3862.543,-724.67178 3905.7525,-724.67178 3942.9988,-761.74215 3981.9371,-800.6803 4020.875,-839.61845 4058.1212,-876.68882 4101.3309,-876.68882 4144.5406,-876.68882 4181.7868,-839.61845 4220.7247,-800.6803 4259.663,-761.74215 4296.9092,-724.67178 4340.1185,-724.67178 4383.3281,-724.67178 4420.5743,-761.74215 4459.5127,-800.6803 4498.4506,-839.61845 4535.6968,-876.68882 4578.9065,-876.68882 4622.1161,-876.68882 4659.3623,-839.61845 4698.3002,-800.6803 4737.2386,-761.74215 4774.4848,-724.67178 4817.6945,-724.67178 4860.9037,-724.67178 4898.1499,-761.74215 4937.0882,-800.6803 4976.0261,-839.61845 5013.2723,-876.68882 5056.482,-876.68882 5099.6917,-876.68882 5136.9379,-839.61845 5175.8758,-800.6803 5214.8141,-761.74215 5252.0604,-724.67178 5295.27,-724.67178 5338.4793,-724.67178 5375.7255,-761.74215 5414.6638,-800.6803 5453.6017,-839.61845 5490.8484,-876.68882 5534.0576,-876.68882 5577.2673,-876.68882 5614.5135,-839.61845 5653.4514,-800.6803 5692.3897,-761.74215 5729.6359,-724.67178 5772.8456,-724.67178 5816.0548,-724.67178 5853.301,-761.74215 5892.2394,-800.6803 5931.1777,-839.61845 5968.4239,-876.68882 6011.6331,-876.68882 6054.8428,-876.68882 6092.089,-839.61845 6131.0274,-800.6803 6169.9653,-761.74215 6207.2115,-724.67178 6250.4212,-724.67178 6293.6308,-724.67178 6330.877,-761.74215 6369.8149,-800.6803 6408.7533,-839.61845 6445.9995,-876.68882 6489.2087,-876.68882 6532.4184,-876.68882 6569.6646,-839.61845 6608.6029,-800.6803 6647.5408,-761.74215 6684.787,-724.67178 6727.9967,-724.67178 6771.2064,-724.67178 6808.4526,-761.74215 6847.3905,-800.6803 6886.3288,-839.61845 6923.575,-876.68882 6966.7847,-876.68882 7009.9939,-876.68882 7047.2401,-839.61845 7086.1785,-800.6803 7125.1164,-761.74215 7162.3626,-724.67178 7205.5723,-724.67178 7248.782,-724.67178 7286.0282,-761.74215 7324.966,-800.6803 7363.9044,-839.61845 7401.1506,-876.68882 7444.3603,-876.68882 7487.5695,-876.68882 7524.8157,-839.61845 7563.7541,-800.6803" />
   </g>
</svg>
